<?xml version="1.0" encoding="UTF-8"?>
<svg xmlns="http://www.w3.org/2000/svg" xmlns:xlink="http://www.w3.org/1999/xlink" width="512pt" height="512pt" viewBox="0 0 512 512" version="1.1">
<g id="surface1">
<path style=" stroke:none;fill-rule:nonzero;fill:rgb(0%,0%,0%);fill-opacity:1;" d="M 384 394.667969 C 366.328125 394.667969 352 380.339844 352 362.667969 C 352 344.992188 366.328125 330.667969 384 330.667969 C 401.671875 330.667969 416 344.992188 416 362.667969 C 416 380.339844 401.671875 394.667969 384 394.667969 M 416 202.667969 L 457.8125 256 L 362.667969 256 L 362.667969 202.667969 M 128 394.667969 C 110.328125 394.667969 96 380.339844 96 362.667969 C 96 344.992188 110.328125 330.667969 128 330.667969 C 145.671875 330.667969 160 344.992188 160 362.667969 C 160 380.339844 145.671875 394.667969 128 394.667969 M 426.667969 170.667969 L 362.667969 170.667969 L 362.667969 85.332031 L 64 85.332031 C 40.320312 85.332031 21.332031 104.320312 21.332031 128 L 21.332031 362.667969 L 64 362.667969 C 64 398.011719 92.652344 426.667969 128 426.667969 C 163.347656 426.667969 192 398.011719 192 362.667969 L 320 362.667969 C 320 398.011719 348.652344 426.667969 384 426.667969 C 419.347656 426.667969 448 398.011719 448 362.667969 L 490.667969 362.667969 L 490.667969 256 Z M 426.667969 170.667969 "/>
</g>
</svg>
